<?xml version="1.0" standalone="no"?>
<!DOCTYPE svg PUBLIC "-//W3C//DTD SVG 20010904//EN"
 "http://www.w3.org/TR/2001/REC-SVG-20010904/DTD/svg10.dtd">
<svg version="1.0" xmlns="http://www.w3.org/2000/svg"
 width="412.000000pt" height="412.000000pt" viewBox="0 0 412.000000 412.000000"
 preserveAspectRatio="xMidYMid meet">
<metadata>
Created by potrace 1.11, written by Peter Selinger 2001-2013
</metadata>
<g transform="translate(0.000000,412.000000) scale(0.100000,-0.100000)"
fill="#000000" stroke="none">
<path d="M80 2050 l0 -1980 1965 0 1965 0 0 1980 0 1980 -1965 0 -1965 0 0
-1980z m3068 1088 l2 -708 -247 0 -248 0 3 247 c3 186 0 258 -10 287 -10 30
-36 58 -113 123 -55 45 -110 88 -123 93 -30 13 -712 13 -745 1 -28 -11 -443
-528 -458 -571 -21 -59 25 -143 93 -169 33 -13 87 -4 113 17 11 10 101 117
198 240 l178 222 130 0 129 0 -62 -79 c-35 -43 -135 -168 -223 -277 -88 -110
-168 -215 -177 -234 -16 -31 -18 -69 -18 -382 l0 -347 -329 -3 -330 -3 -31
-30 c-82 -78 -79 -176 6 -241 l37 -29 426 0 426 0 33 23 c61 44 66 65 72 289
l5 201 120 -191 120 -191 5 -386 c5 -350 7 -388 23 -413 62 -95 202 -88 261
13 20 33 21 53 24 425 2 251 -1 405 -8 432 -5 23 -42 93 -82 155 -39 62 -117
185 -173 273 -55 88 -109 172 -118 186 l-18 27 165 206 c91 113 169 206 172
206 3 0 5 -60 5 -133 -2 -149 10 -199 53 -232 26 -19 45 -20 369 -25 l342 -5
3 -807 2 -807 -83 -98 c-45 -54 -97 -117 -115 -140 l-34 -43 -294 0 -295 0 15
22 c23 32 20 104 -5 144 -31 51 -73 76 -128 77 -64 1 -90 -17 -197 -140 l-89
-103 -608 0 c-586 0 -608 1 -595 18 7 10 57 72 111 138 l98 119 0 320 0 320
-43 14 c-147 48 -227 234 -159 373 26 54 86 112 139 135 20 8 43 18 50 22 10
5 13 213 12 1062 0 580 3 1059 7 1062 3 4 502 6 1107 5 l1101 -3 3 -707z"/>
<path d="M2620 3531 c-75 -23 -118 -61 -151 -135 -40 -92 -4 -216 79 -271 117
-76 262 -39 325 84 48 95 33 189 -42 261 -62 61 -138 83 -211 61z"/>
</g>
</svg>
